<?xml version="1.0" encoding="UTF-8" standalone="no"?>
<svg width="821px" height="159px" viewBox="0 0 821 159" version="1.1" xmlns="http://www.w3.org/2000/svg" xmlns:xlink="http://www.w3.org/1999/xlink">
    <!-- Generator: Sketch 41.2 (35397) - http://www.bohemiancoding.com/sketch -->
    <title>Group 4</title>
    <desc>Created with Sketch.</desc>
    <defs>
        <rect id="path-1" x="0" y="0" width="857" height="168"></rect>
        <rect id="path-3" x="0" y="0" width="156" height="174"></rect>
        <mask id="mask-4" maskContentUnits="userSpaceOnUse" maskUnits="objectBoundingBox" x="0" y="0" width="156" height="174" fill="white">
            <use xlink:href="#path-3"></use>
        </mask>
    </defs>
    <g id="Page-1" stroke="none" stroke-width="1" fill="none" fill-rule="evenodd">
        <g id="header-copy" transform="translate(-383.000000, -237.000000)">
            <g id="Group-4" transform="translate(367.000000, 237.000000)">
                <mask id="mask-2" fill="white">
                    <use xlink:href="#path-1"></use>
                </mask>
                <g id="Mask"></g>
                <g mask="url(#mask-2)">
                    <g transform="translate(16.000000, -55.000000)">
                        <g id="Group-3" stroke-width="1" fill="none">
                            <g id="Group">
                                <use id="Rectangle" stroke="#FFFFFF" mask="url(#mask-4)" stroke-width="4.09999996" xlink:href="#path-3"></use>
                                <g id="Group-2" transform="translate(25.131579, 12.282353)" fill="#FFFFFF">
                                    <path d="M51.2356426,64.5140324 C50.4355247,64.176368 49.8537963,63.7120863 49.49044,63.1211735 C49.1270837,62.5302608 48.9454083,61.8824686 48.9454083,61.1777776 C48.9454083,59.9739304 49.3656474,58.9793033 50.2061382,58.1938665 C51.0466291,57.4084296 52.2412827,57.0157171 53.7901348,57.0157171 C55.3243059,57.0157171 56.5152892,57.4084296 57.3631206,58.1938665 C58.210952,58.9793033 58.6348613,59.9739304 58.6348613,61.1777776 C58.6348613,61.9265118 58.4403401,62.592655 58.051292,63.1762273 C57.6622438,63.7597995 57.1153824,64.2057301 56.4106914,64.5140324 C57.3062362,64.8737185 57.9870603,65.3985586 58.4531841,66.0885685 C58.9193078,66.7785785 59.1523662,67.5750142 59.1523662,68.4778996 C59.1523662,69.9680275 58.6770739,71.179197 57.7264751,72.1114445 C56.7758763,73.043692 55.5114887,73.5098087 53.9332744,73.5098087 C52.4651682,73.5098087 51.242988,73.1244366 50.2666973,72.3536808 C49.1142339,71.4434549 48.5380108,70.1955833 48.5380108,68.6100285 C48.5380108,67.7365052 48.7545532,66.9345642 49.1876446,66.2041813 C49.620736,65.4737985 50.3033951,64.9104211 51.2356426,64.5140324 Z M51.8742657,61.3979924 C51.8742657,62.014597 52.0486007,62.4953946 52.3972759,62.8403996 C52.7459512,63.1854046 53.2102328,63.3579045 53.7901348,63.3579045 C54.3773773,63.3579045 54.8471643,63.1835695 55.1995098,62.8348942 C55.5518553,62.486219 55.7280254,62.0035863 55.7280254,61.3869817 C55.7280254,60.8070797 55.5536904,60.342798 55.2050152,59.9941228 C54.8563399,59.6454475 54.3957285,59.4711125 53.823167,59.4711125 C53.228584,59.4711125 52.7551268,59.6472827 52.4027813,59.9996282 C52.0504358,60.3519737 51.8742657,60.8180904 51.8742657,61.3979924 Z M51.5879864,68.3127384 C51.5879864,69.1642401 51.8063639,69.8285482 52.2431255,70.3056828 C52.6798871,70.7828173 53.2249134,71.021381 53.8782207,71.021381 C54.516847,71.021381 55.0453573,70.7919928 55.4637676,70.3332096 C55.8821779,69.8744264 56.0913799,69.2119534 56.0913799,68.3457707 C56.0913799,67.5896959 55.8785077,66.9822761 55.4527568,66.5234928 C55.027006,66.0647096 54.4874851,65.8353215 53.8341778,65.8353215 C53.078103,65.8353215 52.5147257,66.0959064 52.1440288,66.6170842 C51.773332,67.1382619 51.5879864,67.7034743 51.5879864,68.3127384 Z" id="8"></path>
                                    <path d="M13.8684211,144.456993 L13.8684211,92.1176471 L30.8731071,92.1176471 C37.3170203,92.1176471 41.5174341,92.3794602 43.4744744,92.9030943 C46.4816339,93.6885454 48.9994956,95.396281 51.0281349,98.0263523 C53.0567743,100.656424 54.0710788,104.054044 54.0710788,108.219315 C54.0710788,111.432524 53.4863621,114.13396 52.3169112,116.323702 C51.1474602,118.513445 49.6618025,120.233081 47.8598934,121.482662 C46.0579844,122.732244 44.2262698,123.559335 42.3646949,123.963962 C39.8348623,124.463794 36.1714332,124.713707 31.3742978,124.713707 L24.4650254,124.713707 L24.4650254,144.456993 L13.8684211,144.456993 Z M24.4650254,100.971779 L24.4650254,115.823872 L30.2645183,115.823872 C34.4411288,115.823872 37.2334493,115.550158 38.6415636,115.002723 C40.049678,114.455287 41.1534799,113.598444 41.9530025,112.432168 C42.7525251,111.265892 43.1522804,109.909224 43.1522804,108.362124 C43.1522804,106.458 42.5914297,104.887121 41.4697114,103.64944 C40.3479932,102.41176 38.927967,101.638221 37.2095901,101.328801 C35.9446738,101.090785 33.4029461,100.971779 29.5843309,100.971779 L24.4650254,100.971779 Z M82.6626814,132.389668 L92.6864963,134.067669 C91.3977137,137.733108 89.3631382,140.523797 86.582709,142.439822 C83.8022798,144.355847 80.3238121,145.313845 76.1472017,145.313845 C69.536224,145.313845 64.6436966,143.159837 61.4694727,138.851756 C58.9635064,135.400532 57.7105421,131.044913 57.7105421,125.784771 C57.7105421,119.501162 59.3572952,114.580265 62.6508509,111.021933 C65.9444065,107.463602 70.1090213,105.684463 75.1448202,105.684463 C80.801144,105.684463 85.2640837,107.546906 88.533773,111.271849 C91.8034623,114.996791 93.3666845,120.703127 93.2234864,128.391028 L68.0207517,128.391028 C68.0923508,131.366221 68.9037943,133.680887 70.4551068,135.335095 C72.0064192,136.989303 73.9395642,137.816394 76.2545997,137.816394 C77.8297785,137.816394 79.1543408,137.387973 80.2283263,136.531117 C81.3023119,135.674261 82.1137554,134.293792 82.6626814,132.389668 Z M83.2354708,122.250258 C83.1638718,119.346469 82.4120932,117.138909 80.9801124,115.62751 C79.5481317,114.116112 77.8059146,113.360424 75.7534089,113.360424 C73.5577052,113.360424 71.7438901,114.157764 70.3119094,115.752468 C68.8799287,117.347172 68.1758821,119.51308 68.1997484,122.250258 L83.2354708,122.250258 Z" id="Pe"></path>
                                </g>
                            </g>
                            <path d="M180.801758,158 L180.801758,110.755859 L196.109375,110.755859 C201.910185,110.755859 205.691397,110.992185 207.453125,111.464844 C210.16017,112.173832 212.426749,113.71532 214.25293,116.089355 C216.079111,118.463391 216.992188,121.530255 216.992188,125.290039 C216.992188,128.190444 216.465826,130.628896 215.413086,132.605469 C214.360346,134.582041 213.022957,136.134272 211.400879,137.262207 C209.7788,138.390142 208.129891,139.136717 206.454102,139.501953 C204.176746,139.953127 200.878928,140.178711 196.560547,140.178711 L190.34082,140.178711 L190.34082,158 L180.801758,158 Z M190.34082,118.748047 L190.34082,132.154297 L195.561523,132.154297 C199.321308,132.154297 201.834955,131.907229 203.102539,131.413086 C204.370124,130.918943 205.363766,130.145513 206.083496,129.092773 C206.803226,128.040034 207.163086,126.815437 207.163086,125.418945 C207.163086,123.700187 206.658208,122.282232 205.648438,121.165039 C204.638667,120.047846 203.360359,119.349611 201.813477,119.070312 C200.674799,118.855468 198.386736,118.748047 194.949219,118.748047 L190.34082,118.748047 Z M233.427734,158 L224.37207,158 L224.37207,123.775391 L232.783203,123.775391 L232.783203,128.641602 C234.222663,126.342762 235.517084,124.828129 236.666504,124.097656 C237.815924,123.367184 239.121086,123.001953 240.582031,123.001953 C242.644542,123.001953 244.631826,123.571283 246.543945,124.709961 L243.740234,132.605469 C242.214836,131.617183 240.796882,131.123047 239.486328,131.123047 C238.218744,131.123047 237.144536,131.472164 236.263672,132.17041 C235.382808,132.868656 234.689944,134.13085 234.185059,135.957031 C233.680173,137.783212 233.427734,141.607393 233.427734,147.429688 L233.427734,158 Z M248.348633,140.404297 C248.348633,137.396469 249.089836,134.485366 250.572266,131.670898 C252.054695,128.856431 254.154772,126.708015 256.872559,125.225586 C259.590346,123.743157 262.624983,123.001953 265.976562,123.001953 C271.154323,123.001953 275.397444,124.683089 278.706055,128.04541 C282.014665,131.407732 283.668945,135.656224 283.668945,140.791016 C283.668945,145.968776 281.998552,150.260237 278.657715,153.665527 C275.316878,157.070818 271.111353,158.773438 266.041016,158.773438 C262.904281,158.773438 259.912612,158.06446 257.065918,156.646484 C254.219224,155.228509 252.054695,153.149916 250.572266,150.410645 C249.089836,147.671373 248.348633,144.335957 248.348633,140.404297 Z M257.629883,140.887695 C257.629883,144.282244 258.435539,146.881827 260.046875,148.686523 C261.658211,150.49122 263.645496,151.393555 266.008789,151.393555 C268.372082,151.393555 270.353996,150.49122 271.95459,148.686523 C273.555184,146.881827 274.355469,144.260759 274.355469,140.823242 C274.355469,137.471663 273.555184,134.893564 271.95459,133.088867 C270.353996,131.284171 268.372082,130.381836 266.008789,130.381836 C263.645496,130.381836 261.658211,131.284171 260.046875,133.088867 C258.435539,134.893564 257.629883,137.493147 257.629883,140.887695 Z M322.147461,158 L313.736328,158 L313.736328,152.972656 C312.339837,154.927744 310.690927,156.383296 308.789551,157.339355 C306.888174,158.295415 304.970713,158.773438 303.037109,158.773438 C299.105449,158.773438 295.737807,157.188981 292.934082,154.02002 C290.130357,150.851058 288.728516,146.430692 288.728516,140.758789 C288.728516,134.957979 290.09276,130.548355 292.821289,127.529785 C295.549818,124.511215 298.998026,123.001953 303.166016,123.001953 C306.990253,123.001953 310.298814,124.591781 313.091797,127.771484 L313.091797,110.755859 L322.147461,110.755859 L322.147461,158 Z M297.977539,140.146484 C297.977539,143.798846 298.482417,146.441398 299.492188,148.074219 C300.953132,150.437512 302.994128,151.619141 305.615234,151.619141 C307.699229,151.619141 309.471672,150.732919 310.932617,148.960449 C312.393562,147.187979 313.124023,144.540057 313.124023,141.016602 C313.124023,137.084941 312.415046,134.254403 310.99707,132.524902 C309.579094,130.795402 307.763683,129.930664 305.550781,129.930664 C303.402333,129.930664 301.603035,130.784659 300.152832,132.492676 C298.702629,134.200692 297.977539,136.751936 297.977539,140.146484 Z M353.600586,158 L353.600586,152.875977 C352.354486,154.702158 350.716319,156.141596 348.686035,157.194336 C346.655752,158.247076 344.512707,158.773438 342.256836,158.773438 C339.957996,158.773438 337.895517,158.26856 336.069336,157.258789 C334.243155,156.249018 332.921879,154.831064 332.105469,153.004883 C331.289058,151.178702 330.880859,148.654313 330.880859,145.431641 L330.880859,123.775391 L339.936523,123.775391 L339.936523,139.501953 C339.936523,144.314477 340.103026,147.263178 340.436035,148.348145 C340.769045,149.433111 341.375972,150.292477 342.256836,150.92627 C343.1377,151.560062 344.254876,151.876953 345.608398,151.876953 C347.155281,151.876953 348.54101,151.452641 349.765625,150.604004 C350.99024,149.755367 351.828123,148.702643 352.279297,147.445801 C352.730471,146.188959 352.956055,143.111353 352.956055,138.212891 L352.956055,123.775391 L362.011719,123.775391 L362.011719,158 L353.600586,158 Z M401.231445,133.894531 L392.304688,135.505859 C392.003905,133.722647 391.321783,132.379887 390.258301,131.477539 C389.194819,130.575191 387.814462,130.124023 386.117188,130.124023 C383.861317,130.124023 382.062018,130.902824 380.719238,132.460449 C379.376458,134.018074 378.705078,136.623029 378.705078,140.275391 C378.705078,144.335958 379.3872,147.204093 380.751465,148.879883 C382.115729,150.555672 383.947254,151.393555 386.246094,151.393555 C387.964852,151.393555 389.372065,150.90479 390.467773,149.927246 C391.563482,148.949702 392.336912,147.268567 392.788086,144.883789 L401.682617,146.398438 C400.758784,150.480489 398.986341,153.563466 396.365234,155.647461 C393.744128,157.731456 390.231467,158.773438 385.827148,158.773438 C380.821264,158.773438 376.830581,157.194352 373.85498,154.036133 C370.87938,150.877914 369.391602,146.505887 369.391602,140.919922 C369.391602,135.269503 370.884751,130.870621 373.871094,127.723145 C376.857437,124.575668 380.896459,123.001953 385.988281,123.001953 C390.156271,123.001953 393.470203,123.898917 395.930176,125.692871 C398.390149,127.486825 400.157221,130.220685 401.231445,133.894531 Z M423.790039,123.775391 L423.790039,130.994141 L417.602539,130.994141 L417.602539,144.787109 C417.602539,147.580092 417.661621,149.207517 417.779785,149.669434 C417.89795,150.13135 418.166502,150.512694 418.585449,150.813477 C419.004397,151.114259 419.514645,151.264648 420.116211,151.264648 C420.954106,151.264648 422.167961,150.974612 423.757812,150.394531 L424.53125,157.419922 C422.425771,158.32227 420.041029,158.773438 417.376953,158.773438 C415.744132,158.773438 414.272467,158.499514 412.961914,157.95166 C411.651361,157.403806 410.689944,156.694829 410.077637,155.824707 C409.465329,154.954585 409.041017,153.778328 408.804688,152.295898 C408.611327,151.243159 408.514648,149.116227 408.514648,145.915039 L408.514648,130.994141 L404.357422,130.994141 L404.357422,123.775391 L408.514648,123.775391 L408.514648,116.975586 L417.602539,111.69043 L417.602539,123.775391 L423.790039,123.775391 Z M448.475586,158 L448.475586,110.755859 L483.505859,110.755859 L483.505859,118.748047 L458.014648,118.748047 L458.014648,129.22168 L481.733398,129.22168 L481.733398,137.181641 L458.014648,137.181641 L458.014648,150.040039 L484.408203,150.040039 L484.408203,158 L448.475586,158 Z M523.563477,158 L514.507812,158 L514.507812,140.533203 C514.507812,136.837872 514.314455,134.447759 513.927734,133.362793 C513.541014,132.277827 512.912602,131.434573 512.04248,130.833008 C511.172359,130.231442 510.125006,129.930664 508.900391,129.930664 C507.332023,129.930664 505.924811,130.360347 504.678711,131.219727 C503.432611,132.079106 502.578616,133.217766 502.116699,134.635742 C501.654783,136.053718 501.423828,138.674786 501.423828,142.499023 L501.423828,158 L492.368164,158 L492.368164,123.775391 L500.779297,123.775391 L500.779297,128.802734 C503.76564,124.935528 507.525368,123.001953 512.058594,123.001953 C514.056651,123.001953 515.882804,123.361813 517.537109,124.081543 C519.191415,124.801273 520.442867,125.719721 521.291504,126.836914 C522.140141,127.954107 522.730955,129.221673 523.063965,130.639648 C523.396974,132.057624 523.563477,134.087877 523.563477,136.730469 L523.563477,158 Z M531.910156,160.255859 L542.254883,161.512695 C542.426759,162.715826 542.824216,163.542966 543.447266,163.994141 C544.306645,164.638675 545.660147,164.960938 547.507812,164.960938 C549.871106,164.960938 551.643549,164.606449 552.825195,163.897461 C553.620121,163.424802 554.221678,162.662115 554.629883,161.609375 C554.909181,160.857418 555.048828,159.47169 555.048828,157.452148 L555.048828,152.457031 C552.341783,156.152362 548.925802,158 544.800781,158 C540.203102,158 536.561537,156.055684 533.875977,152.166992 C531.770497,149.094711 530.717773,145.270531 530.717773,140.694336 C530.717773,134.957979 532.098131,130.57521 534.858887,127.545898 C537.619643,124.516586 541.051737,123.001953 545.155273,123.001953 C549.387716,123.001953 552.878892,124.860333 555.628906,128.577148 L555.628906,123.775391 L564.104492,123.775391 L564.104492,154.487305 C564.104492,158.526387 563.771488,161.544912 563.105469,163.542969 C562.43945,165.541026 561.504889,167.109369 560.301758,168.248047 C559.098627,169.386724 557.492686,170.278317 555.483887,170.922852 C553.475088,171.567386 550.934586,171.889648 547.862305,171.889648 C542.061494,171.889648 537.947278,170.896006 535.519531,168.908691 C533.091785,166.921377 531.87793,164.402359 531.87793,161.351562 C531.87793,161.05078 531.888672,160.685549 531.910156,160.255859 Z M539.999023,140.178711 C539.999023,143.809588 540.70263,146.468253 542.109863,148.154785 C543.517097,149.841317 545.251943,150.68457 547.314453,150.68457 C549.527355,150.68457 551.396477,149.819833 552.921875,148.090332 C554.447273,146.360831 555.209961,143.798845 555.209961,140.404297 C555.209961,136.859357 554.479499,134.227548 553.018555,132.508789 C551.55761,130.79003 549.709972,129.930664 547.475586,129.930664 C545.305653,129.930664 543.517097,130.773917 542.109863,132.460449 C540.70263,134.146981 539.999023,136.719709 539.999023,140.178711 Z M573.063477,119.134766 L573.063477,110.755859 L582.119141,110.755859 L582.119141,119.134766 L573.063477,119.134766 Z M573.063477,158 L573.063477,123.775391 L582.119141,123.775391 L582.119141,158 L573.063477,158 Z M622.53125,158 L613.475586,158 L613.475586,140.533203 C613.475586,136.837872 613.282228,134.447759 612.895508,133.362793 C612.508787,132.277827 611.880375,131.434573 611.010254,130.833008 C610.140132,130.231442 609.09278,129.930664 607.868164,129.930664 C606.299797,129.930664 604.892584,130.360347 603.646484,131.219727 C602.400384,132.079106 601.546389,133.217766 601.084473,134.635742 C600.622556,136.053718 600.391602,138.674786 600.391602,142.499023 L600.391602,158 L591.335938,158 L591.335938,123.775391 L599.74707,123.775391 L599.74707,128.802734 C602.733413,124.935528 606.493141,123.001953 611.026367,123.001953 C613.024424,123.001953 614.850578,123.361813 616.504883,124.081543 C618.159188,124.801273 619.41064,125.719721 620.259277,126.836914 C621.107914,127.954107 621.698729,129.221673 622.031738,130.639648 C622.364748,132.057624 622.53125,134.087877 622.53125,136.730469 L622.53125,158 Z M651.535156,147.107422 L660.558594,148.62207 C659.398432,151.930681 657.566907,154.449698 655.063965,156.179199 C652.561023,157.9087 649.429706,158.773438 645.669922,158.773438 C639.71872,158.773438 635.314467,156.829121 632.457031,152.94043 C630.201161,149.82518 629.073242,145.893578 629.073242,141.145508 C629.073242,135.473604 630.555649,131.031754 633.520508,127.819824 C636.485366,124.607894 640.234352,123.001953 644.767578,123.001953 C649.8594,123.001953 653.876938,124.683089 656.820312,128.04541 C659.763687,131.407732 661.170899,136.558559 661.041992,143.498047 L638.354492,143.498047 C638.418946,146.183607 639.149407,148.272942 640.545898,149.766113 C641.94239,151.259285 643.682607,152.005859 645.766602,152.005859 C647.184577,152.005859 648.376948,151.619144 649.34375,150.845703 C650.310552,150.072262 651.041013,148.82618 651.535156,147.107422 Z M652.050781,137.955078 C651.986328,135.333971 651.309577,133.341315 650.020508,131.977051 C648.731439,130.612786 647.163095,129.930664 645.31543,129.930664 C643.338857,129.930664 641.706061,130.650383 640.416992,132.089844 C639.127923,133.529304 638.494141,135.484363 638.515625,137.955078 L652.050781,137.955078 Z M688.241211,147.107422 L697.264648,148.62207 C696.104486,151.930681 694.272962,154.449698 691.77002,156.179199 C689.267077,157.9087 686.135761,158.773438 682.375977,158.773438 C676.424775,158.773438 672.020522,156.829121 669.163086,152.94043 C666.907215,149.82518 665.779297,145.893578 665.779297,141.145508 C665.779297,135.473604 667.261704,131.031754 670.226562,127.819824 C673.191421,124.607894 676.940407,123.001953 681.473633,123.001953 C686.565455,123.001953 690.582993,124.683089 693.526367,128.04541 C696.469741,131.407732 697.876954,136.558559 697.748047,143.498047 L675.060547,143.498047 C675.125,146.183607 675.855462,148.272942 677.251953,149.766113 C678.648444,151.259285 680.388661,152.005859 682.472656,152.005859 C683.890632,152.005859 685.083003,151.619144 686.049805,150.845703 C687.016606,150.072262 687.747068,148.82618 688.241211,147.107422 Z M688.756836,137.955078 C688.692382,135.333971 688.015631,133.341315 686.726563,131.977051 C685.437494,130.612786 683.86915,129.930664 682.021484,129.930664 C680.044912,129.930664 678.412116,130.650383 677.123047,132.089844 C675.833978,133.529304 675.200195,135.484363 675.22168,137.955078 L688.756836,137.955078 Z M713.796875,158 L704.741211,158 L704.741211,123.775391 L713.152344,123.775391 L713.152344,128.641602 C714.591804,126.342762 715.886225,124.828129 717.035645,124.097656 C718.185064,123.367184 719.490227,123.001953 720.951172,123.001953 C723.013682,123.001953 725.000967,123.571283 726.913086,124.709961 L724.109375,132.605469 C722.583977,131.617183 721.166022,131.123047 719.855469,131.123047 C718.587884,131.123047 717.513676,131.472164 716.632812,132.17041 C715.751949,132.868656 715.059085,134.13085 714.554199,135.957031 C714.049314,137.783212 713.796875,141.607393 713.796875,147.429688 L713.796875,158 Z M730.8125,119.134766 L730.8125,110.755859 L739.868164,110.755859 L739.868164,119.134766 L730.8125,119.134766 Z M730.8125,158 L730.8125,123.775391 L739.868164,123.775391 L739.868164,158 L730.8125,158 Z M780.280273,158 L771.224609,158 L771.224609,140.533203 C771.224609,136.837872 771.031252,134.447759 770.644531,133.362793 C770.257811,132.277827 769.629399,131.434573 768.759277,130.833008 C767.889156,130.231442 766.841803,129.930664 765.617188,129.930664 C764.04882,129.930664 762.641608,130.360347 761.395508,131.219727 C760.149408,132.079106 759.295412,133.217766 758.833496,134.635742 C758.37158,136.053718 758.140625,138.674786 758.140625,142.499023 L758.140625,158 L749.084961,158 L749.084961,123.775391 L757.496094,123.775391 L757.496094,128.802734 C760.482437,124.935528 764.242165,123.001953 768.775391,123.001953 C770.773447,123.001953 772.599601,123.361813 774.253906,124.081543 C775.908211,124.801273 777.159664,125.719721 778.008301,126.836914 C778.856938,127.954107 779.447752,129.221673 779.780762,130.639648 C780.113771,132.057624 780.280273,134.087877 780.280273,136.730469 L780.280273,158 Z M788.626953,160.255859 L798.97168,161.512695 C799.143556,162.715826 799.541013,163.542966 800.164062,163.994141 C801.023442,164.638675 802.376944,164.960938 804.224609,164.960938 C806.587902,164.960938 808.360346,164.606449 809.541992,163.897461 C810.336918,163.424802 810.938475,162.662115 811.34668,161.609375 C811.625978,160.857418 811.765625,159.47169 811.765625,157.452148 L811.765625,152.457031 C809.05858,156.152362 805.642599,158 801.517578,158 C796.919899,158 793.278334,156.055684 790.592773,152.166992 C788.487294,149.094711 787.43457,145.270531 787.43457,140.694336 C787.43457,134.957979 788.814928,130.57521 791.575684,127.545898 C794.33644,124.516586 797.768534,123.001953 801.87207,123.001953 C806.104513,123.001953 809.595689,124.860333 812.345703,128.577148 L812.345703,123.775391 L820.821289,123.775391 L820.821289,154.487305 C820.821289,158.526387 820.488285,161.544912 819.822266,163.542969 C819.156247,165.541026 818.221686,167.109369 817.018555,168.248047 C815.815424,169.386724 814.209483,170.278317 812.200684,170.922852 C810.191884,171.567386 807.651383,171.889648 804.579102,171.889648 C798.778291,171.889648 794.664075,170.896006 792.236328,168.908691 C789.808582,166.921377 788.594727,164.402359 788.594727,161.351562 C788.594727,161.05078 788.605469,160.685549 788.626953,160.255859 Z M796.71582,140.178711 C796.71582,143.809588 797.419427,146.468253 798.82666,148.154785 C800.233894,149.841317 801.96874,150.68457 804.03125,150.68457 C806.244152,150.68457 808.113274,149.819833 809.638672,148.090332 C811.16407,146.360831 811.926758,143.798845 811.926758,140.404297 C811.926758,136.859357 811.196296,134.227548 809.735352,132.508789 C808.274407,130.79003 806.426769,129.930664 804.192383,129.930664 C802.02245,129.930664 800.233894,130.773917 798.82666,132.460449 C797.419427,134.146981 796.71582,136.719709 796.71582,140.178711 Z" id="Product-Engineering" fill="#FFFFFF"></path>
                        </g>
                        <path d="M181.847656,206 L181.847656,180.230469 L200.480469,180.230469 L200.480469,183.271484 L185.257812,183.271484 L185.257812,191.164062 L199.513672,191.164062 L199.513672,194.1875 L185.257812,194.1875 L185.257812,202.958984 L201.078125,202.958984 L201.078125,206 L181.847656,206 Z M205.384766,206 L205.384766,187.332031 L208.232422,187.332031 L208.232422,189.986328 C209.603522,187.935537 211.583971,186.910156 214.173828,186.910156 C215.298834,186.910156 216.333003,187.112303 217.276367,187.516602 C218.219731,187.9209 218.925779,188.451169 219.394531,189.107422 C219.863284,189.763675 220.191405,190.542964 220.378906,191.445312 C220.496094,192.031253 220.554688,193.056633 220.554688,194.521484 L220.554688,206 L217.390625,206 L217.390625,194.644531 C217.390625,193.355462 217.267579,192.391605 217.021484,191.75293 C216.775389,191.114255 216.33887,190.604494 215.711914,190.223633 C215.084958,189.842772 214.349614,189.652344 213.505859,189.652344 C212.158196,189.652344 210.995122,190.080074 210.016602,190.935547 C209.038081,191.79102 208.548828,193.414051 208.548828,195.804688 L208.548828,206 L205.384766,206 Z M230.591797,206 L223.490234,187.332031 L226.830078,187.332031 L230.837891,198.511719 C231.271487,199.718756 231.66992,200.97265 232.033203,202.273438 C232.314455,201.289058 232.707029,200.105476 233.210938,198.722656 L237.359375,187.332031 L240.611328,187.332031 L233.544922,206 L230.591797,206 Z M243.423828,183.869141 L243.423828,180.230469 L246.587891,180.230469 L246.587891,183.869141 L243.423828,183.869141 Z M243.423828,206 L243.423828,187.332031 L246.587891,187.332031 L246.587891,206 L243.423828,206 Z M251.369141,206 L251.369141,187.332031 L254.216797,187.332031 L254.216797,190.162109 C254.943363,188.837884 255.614255,187.964846 256.229492,187.542969 C256.84473,187.121092 257.521481,186.910156 258.259766,186.910156 C259.326177,186.910156 260.410151,187.249997 261.511719,187.929688 L260.421875,190.865234 C259.648434,190.408201 258.875004,190.179688 258.101562,190.179688 C257.410153,190.179688 256.789065,190.387693 256.238281,190.803711 C255.687497,191.219729 255.294923,191.796871 255.060547,192.535156 C254.708983,193.660162 254.533203,194.890618 254.533203,196.226562 L254.533203,206 L251.369141,206 Z M262.214844,196.666016 C262.214844,193.208967 263.175772,190.648446 265.097656,188.984375 C266.703133,187.601556 268.660145,186.910156 270.96875,186.910156 C273.535169,186.910156 275.632804,187.750968 277.261719,189.432617 C278.890633,191.114266 279.705078,193.437485 279.705078,196.402344 C279.705078,198.8047 279.34473,200.694329 278.624023,202.071289 C277.903317,203.448249 276.854499,204.517574 275.477539,205.279297 C274.100579,206.041019 272.597664,206.421875 270.96875,206.421875 C268.355456,206.421875 266.243172,205.583993 264.631836,203.908203 C263.0205,202.232413 262.214844,199.818375 262.214844,196.666016 Z M265.466797,196.666016 C265.466797,199.056653 265.988276,200.846674 267.03125,202.036133 C268.074224,203.225592 269.386711,203.820312 270.96875,203.820312 C272.53907,203.820312 273.845698,203.222662 274.888672,202.027344 C275.931646,200.832025 276.453125,199.009778 276.453125,196.560547 C276.453125,194.251942 275.928716,192.502936 274.879883,191.313477 C273.831049,190.124017 272.527352,189.529297 270.96875,189.529297 C269.386711,189.529297 268.074224,190.121088 267.03125,191.304688 C265.988276,192.488287 265.466797,194.275379 265.466797,196.666016 Z M283.414062,206 L283.414062,187.332031 L286.261719,187.332031 L286.261719,189.986328 C287.632819,187.935537 289.613268,186.910156 292.203125,186.910156 C293.328131,186.910156 294.3623,187.112303 295.305664,187.516602 C296.249028,187.9209 296.955076,188.451169 297.423828,189.107422 C297.89258,189.763675 298.220702,190.542964 298.408203,191.445312 C298.525391,192.031253 298.583984,193.056633 298.583984,194.521484 L298.583984,206 L295.419922,206 L295.419922,194.644531 C295.419922,193.355462 295.296876,192.391605 295.050781,191.75293 C294.804686,191.114255 294.368167,190.604494 293.741211,190.223633 C293.114255,189.842772 292.37891,189.652344 291.535156,189.652344 C290.187493,189.652344 289.024419,190.080074 288.045898,190.935547 C287.067378,191.79102 286.578125,193.414051 286.578125,195.804688 L286.578125,206 L283.414062,206 Z M303.435547,206 L303.435547,187.332031 L306.265625,187.332031 L306.265625,189.951172 C306.851565,189.037105 307.630855,188.301761 308.603516,187.745117 C309.576177,187.188474 310.683588,186.910156 311.925781,186.910156 C313.308601,186.910156 314.442378,187.197263 315.327148,187.771484 C316.211918,188.345706 316.835936,189.148432 317.199219,190.179688 C318.675789,187.999989 320.597644,186.910156 322.964844,186.910156 C324.816416,186.910156 326.240229,187.422846 327.236328,188.448242 C328.232427,189.473638 328.730469,191.052724 328.730469,193.185547 L328.730469,206 L325.583984,206 L325.583984,194.240234 C325.583984,192.974603 325.481446,192.063479 325.276367,191.506836 C325.071288,190.950193 324.699221,190.501955 324.160156,190.162109 C323.621091,189.822264 322.988285,189.652344 322.261719,189.652344 C320.949212,189.652344 319.859379,190.088863 318.992188,190.961914 C318.124996,191.834965 317.691406,193.232412 317.691406,195.154297 L317.691406,206 L314.527344,206 L314.527344,193.871094 C314.527344,192.464837 314.269534,191.41016 313.753906,190.707031 C313.238279,190.003903 312.394537,189.652344 311.222656,189.652344 C310.332027,189.652344 309.508793,189.886716 308.75293,190.355469 C307.997067,190.824221 307.44922,191.509761 307.109375,192.412109 C306.76953,193.314458 306.599609,194.615226 306.599609,196.314453 L306.599609,206 L303.435547,206 Z M346.203125,199.988281 L349.472656,200.392578 C348.957029,202.302744 348.00196,203.785151 346.607422,204.839844 C345.212884,205.894537 343.431651,206.421875 341.263672,206.421875 C338.533189,206.421875 336.368172,205.581063 334.768555,203.899414 C333.168937,202.217765 332.369141,199.85939 332.369141,196.824219 C332.369141,193.683578 333.177726,191.246102 334.794922,189.511719 C336.412117,187.777335 338.509753,186.910156 341.087891,186.910156 C343.583997,186.910156 345.623039,187.759757 347.205078,189.458984 C348.787117,191.158212 349.578125,193.548813 349.578125,196.630859 C349.578125,196.81836 349.572266,197.099607 349.560547,197.474609 L335.638672,197.474609 C335.75586,199.525401 336.335932,201.095698 337.378906,202.185547 C338.42188,203.275396 339.722648,203.820312 341.28125,203.820312 C342.441412,203.820312 343.431637,203.515628 344.251953,202.90625 C345.07227,202.296872 345.722654,201.324225 346.203125,199.988281 Z M335.814453,194.873047 L346.238281,194.873047 C346.097656,193.302727 345.699222,192.125004 345.042969,191.339844 C344.035151,190.121088 342.728524,189.511719 341.123047,189.511719 C339.669915,189.511719 338.448247,189.998042 337.458008,190.970703 C336.467768,191.943364 335.919922,193.244132 335.814453,194.873047 Z M353.445312,206 L353.445312,187.332031 L356.292969,187.332031 L356.292969,189.986328 C357.664069,187.935537 359.644518,186.910156 362.234375,186.910156 C363.359381,186.910156 364.39355,187.112303 365.336914,187.516602 C366.280278,187.9209 366.986326,188.451169 367.455078,189.107422 C367.92383,189.763675 368.251952,190.542964 368.439453,191.445312 C368.556641,192.031253 368.615234,193.056633 368.615234,194.521484 L368.615234,206 L365.451172,206 L365.451172,194.644531 C365.451172,193.355462 365.328126,192.391605 365.082031,191.75293 C364.835936,191.114255 364.399417,190.604494 363.772461,190.223633 C363.145505,189.842772 362.41016,189.652344 361.566406,189.652344 C360.218743,189.652344 359.055669,190.080074 358.077148,190.935547 C357.098628,191.79102 356.609375,193.414051 356.609375,195.804688 L356.609375,206 L353.445312,206 Z M380.375,203.169922 L380.832031,205.964844 C379.941402,206.152345 379.144535,206.246094 378.441406,206.246094 C377.292963,206.246094 376.402347,206.064455 375.769531,205.701172 C375.136716,205.337889 374.691408,204.860355 374.433594,204.268555 C374.17578,203.676755 374.046875,202.43165 374.046875,200.533203 L374.046875,189.792969 L371.726562,189.792969 L371.726562,187.332031 L374.046875,187.332031 L374.046875,182.708984 L377.193359,180.810547 L377.193359,187.332031 L380.375,187.332031 L380.375,189.792969 L377.193359,189.792969 L377.193359,200.708984 C377.193359,201.611333 377.249023,202.191405 377.360352,202.449219 C377.47168,202.707033 377.653319,202.912109 377.905273,203.064453 C378.157228,203.216798 378.517576,203.292969 378.986328,203.292969 C379.337892,203.292969 379.800778,203.251954 380.375,203.169922 Z M401.240234,206 L391.255859,180.230469 L394.947266,180.230469 L401.644531,198.951172 C402.183596,200.451179 402.634764,201.857415 402.998047,203.169922 C403.396486,201.763665 403.859372,200.357429 404.386719,198.951172 L411.347656,180.230469 L414.828125,180.230469 L404.738281,206 L401.240234,206 Z M426.992188,203.697266 C425.820307,204.693364 424.692388,205.396482 423.608398,205.806641 C422.524409,206.216799 421.361334,206.421875 420.119141,206.421875 C418.068349,206.421875 416.492193,205.920903 415.390625,204.918945 C414.289057,203.916987 413.738281,202.636727 413.738281,201.078125 C413.738281,200.164058 413.946287,199.329105 414.362305,198.573242 C414.778322,197.817379 415.323239,197.21094 415.99707,196.753906 C416.670902,196.296873 417.429683,195.951173 418.273438,195.716797 C418.894534,195.552734 419.832025,195.394532 421.085938,195.242188 C423.640638,194.937498 425.521478,194.574221 426.728516,194.152344 C426.740234,193.718748 426.746094,193.44336 426.746094,193.326172 C426.746094,192.037103 426.447269,191.128909 425.849609,190.601562 C425.041012,189.886715 423.839852,189.529297 422.246094,189.529297 C420.757805,189.529297 419.659183,189.790036 418.950195,190.311523 C418.241207,190.83301 417.716799,191.755853 417.376953,193.080078 L414.283203,192.658203 C414.564455,191.333978 415.027341,190.264653 415.671875,189.450195 C416.316409,188.635738 417.248041,188.008791 418.466797,187.569336 C419.685553,187.129881 421.097648,186.910156 422.703125,186.910156 C424.296883,186.910156 425.591792,187.097654 426.587891,187.472656 C427.583989,187.847658 428.316404,188.319333 428.785156,188.887695 C429.253909,189.456058 429.58203,190.173824 429.769531,191.041016 C429.875001,191.580081 429.927734,192.552727 429.927734,193.958984 L429.927734,198.177734 C429.927734,201.119155 429.995117,202.979488 430.129883,203.758789 C430.264649,204.53809 430.531248,205.285153 430.929688,206 L427.625,206 C427.296873,205.343747 427.085938,204.576176 426.992188,203.697266 Z M426.728516,196.630859 C425.580072,197.099612 423.857433,197.498045 421.560547,197.826172 C420.259759,198.013673 419.339846,198.224608 418.800781,198.458984 C418.261716,198.693361 417.845705,199.036131 417.552734,199.487305 C417.259764,199.938479 417.113281,200.43945 417.113281,200.990234 C417.113281,201.833989 417.432614,202.537107 418.071289,203.099609 C418.709964,203.662112 419.644525,203.943359 420.875,203.943359 C422.093756,203.943359 423.17773,203.67676 424.126953,203.143555 C425.076177,202.610349 425.773435,201.880864 426.21875,200.955078 C426.558595,200.240231 426.728516,199.185554 426.728516,197.791016 L426.728516,196.630859 Z M434.796875,206 L434.796875,187.332031 L437.644531,187.332031 L437.644531,190.162109 C438.371097,188.837884 439.041989,187.964846 439.657227,187.542969 C440.272464,187.121092 440.949215,186.910156 441.6875,186.910156 C442.753912,186.910156 443.837885,187.249997 444.939453,187.929688 L443.849609,190.865234 C443.076168,190.408201 442.302738,190.179688 441.529297,190.179688 C440.837887,190.179688 440.2168,190.387693 439.666016,190.803711 C439.115232,191.219729 438.722657,191.796871 438.488281,192.535156 C438.136717,193.660162 437.960938,194.890618 437.960938,196.226562 L437.960938,206 L434.796875,206 Z M446.837891,183.869141 L446.837891,180.230469 L450.001953,180.230469 L450.001953,183.869141 L446.837891,183.869141 Z M446.837891,206 L446.837891,187.332031 L450.001953,187.332031 L450.001953,206 L446.837891,206 Z M467,203.697266 C465.828119,204.693364 464.700201,205.396482 463.616211,205.806641 C462.532221,206.216799 461.369147,206.421875 460.126953,206.421875 C458.076162,206.421875 456.500006,205.920903 455.398438,204.918945 C454.296869,203.916987 453.746094,202.636727 453.746094,201.078125 C453.746094,200.164058 453.954099,199.329105 454.370117,198.573242 C454.786135,197.817379 455.331051,197.21094 456.004883,196.753906 C456.678714,196.296873 457.437496,195.951173 458.28125,195.716797 C458.902347,195.552734 459.839837,195.394532 461.09375,195.242188 C463.64845,194.937498 465.529291,194.574221 466.736328,194.152344 C466.748047,193.718748 466.753906,193.44336 466.753906,193.326172 C466.753906,192.037103 466.455081,191.128909 465.857422,190.601562 C465.048824,189.886715 463.847664,189.529297 462.253906,189.529297 C460.765618,189.529297 459.666996,189.790036 458.958008,190.311523 C458.24902,190.83301 457.724611,191.755853 457.384766,193.080078 L454.291016,192.658203 C454.572267,191.333978 455.035153,190.264653 455.679688,189.450195 C456.324222,188.635738 457.255853,188.008791 458.474609,187.569336 C459.693365,187.129881 461.105461,186.910156 462.710938,186.910156 C464.304695,186.910156 465.599604,187.097654 466.595703,187.472656 C467.591802,187.847658 468.324216,188.319333 468.792969,188.887695 C469.261721,189.456058 469.589843,190.173824 469.777344,191.041016 C469.882813,191.580081 469.935547,192.552727 469.935547,193.958984 L469.935547,198.177734 C469.935547,201.119155 470.002929,202.979488 470.137695,203.758789 C470.272462,204.53809 470.539061,205.285153 470.9375,206 L467.632812,206 C467.304686,205.343747 467.09375,204.576176 467,203.697266 Z M466.736328,196.630859 C465.587885,197.099612 463.865246,197.498045 461.568359,197.826172 C460.267572,198.013673 459.347659,198.224608 458.808594,198.458984 C458.269529,198.693361 457.853517,199.036131 457.560547,199.487305 C457.267577,199.938479 457.121094,200.43945 457.121094,200.990234 C457.121094,201.833989 457.440426,202.537107 458.079102,203.099609 C458.717777,203.662112 459.652338,203.943359 460.882812,203.943359 C462.101569,203.943359 463.185542,203.67676 464.134766,203.143555 C465.083989,202.610349 465.781248,201.880864 466.226562,200.955078 C466.566408,200.240231 466.736328,199.185554 466.736328,197.791016 L466.736328,196.630859 Z M477.757812,206 L474.822266,206 L474.822266,180.230469 L477.986328,180.230469 L477.986328,189.423828 C479.322272,187.748038 481.027333,186.910156 483.101562,186.910156 C484.250006,186.910156 485.336909,187.141599 486.362305,187.604492 C487.3877,188.067385 488.231442,188.717769 488.893555,189.555664 C489.555667,190.393559 490.074217,191.404291 490.449219,192.587891 C490.824221,193.77149 491.011719,195.037103 491.011719,196.384766 C491.011719,199.584 490.220711,202.056632 488.638672,203.802734 C487.056633,205.548837 485.158214,206.421875 482.943359,206.421875 C480.740223,206.421875 479.011725,205.501962 477.757812,203.662109 L477.757812,206 Z M477.722656,196.525391 C477.722656,198.763683 478.027341,200.380854 478.636719,201.376953 C479.632817,203.005868 480.98046,203.820312 482.679688,203.820312 C484.062507,203.820312 485.257807,203.219733 486.265625,202.018555 C487.273443,200.817377 487.777344,199.027356 487.777344,196.648438 C487.777344,194.210925 487.29395,192.412115 486.327148,191.251953 C485.360347,190.091791 484.191413,189.511719 482.820312,189.511719 C481.437493,189.511719 480.242193,190.112299 479.234375,191.313477 C478.226557,192.514654 477.722656,194.251942 477.722656,196.525391 Z M494.791016,206 L494.791016,180.230469 L497.955078,180.230469 L497.955078,206 L494.791016,206 Z M515.638672,199.988281 L518.908203,200.392578 C518.392576,202.302744 517.437507,203.785151 516.042969,204.839844 C514.648431,205.894537 512.867198,206.421875 510.699219,206.421875 C507.968736,206.421875 505.803719,205.581063 504.204102,203.899414 C502.604484,202.217765 501.804688,199.85939 501.804688,196.824219 C501.804688,193.683578 502.613273,191.246102 504.230469,189.511719 C505.847664,187.777335 507.9453,186.910156 510.523438,186.910156 C513.019544,186.910156 515.058586,187.759757 516.640625,189.458984 C518.222664,191.158212 519.013672,193.548813 519.013672,196.630859 C519.013672,196.81836 519.007813,197.099607 518.996094,197.474609 L505.074219,197.474609 C505.191407,199.525401 505.771479,201.095698 506.814453,202.185547 C507.857427,203.275396 509.158195,203.820312 510.716797,203.820312 C511.876959,203.820312 512.867183,203.515628 513.6875,202.90625 C514.507817,202.296872 515.158201,201.324225 515.638672,199.988281 Z M505.25,194.873047 L515.673828,194.873047 C515.533202,193.302727 515.134769,192.125004 514.478516,191.339844 C513.470698,190.121088 512.164071,189.511719 510.558594,189.511719 C509.105461,189.511719 507.883794,189.998042 506.893555,190.970703 C505.903315,191.943364 505.355469,193.244132 505.25,194.873047 Z M521.615234,200.427734 L524.744141,199.935547 C524.919923,201.189459 525.409176,202.150387 526.211914,202.818359 C527.014652,203.486331 528.136712,203.820312 529.578125,203.820312 C531.031257,203.820312 532.109371,203.524417 532.8125,202.932617 C533.515629,202.340817 533.867188,201.646488 533.867188,200.849609 C533.867188,200.134762 533.556644,199.572268 532.935547,199.162109 C532.501951,198.880858 531.423837,198.52344 529.701172,198.089844 C527.380848,197.503903 525.772465,196.997072 524.875977,196.569336 C523.979488,196.141599 523.299807,195.549808 522.836914,194.793945 C522.374021,194.038082 522.142578,193.20313 522.142578,192.289062 C522.142578,191.457027 522.333006,190.686527 522.713867,189.977539 C523.094728,189.268551 523.613278,188.67969 524.269531,188.210938 C524.761721,187.847654 525.432613,187.54004 526.282227,187.288086 C527.13184,187.036132 528.042964,186.910156 529.015625,186.910156 C530.480476,186.910156 531.766596,187.121092 532.874023,187.542969 C533.981451,187.964846 534.798825,188.536129 535.326172,189.256836 C535.853518,189.977543 536.216796,190.9414 536.416016,192.148438 L533.322266,192.570312 C533.18164,191.60937 532.774417,190.859378 532.100586,190.320312 C531.426754,189.781247 530.474616,189.511719 529.244141,189.511719 C527.791008,189.511719 526.753909,189.751951 526.132812,190.232422 C525.511716,190.712893 525.201172,191.275387 525.201172,191.919922 C525.201172,192.33008 525.330077,192.699217 525.587891,193.027344 C525.845704,193.367189 526.249997,193.648436 526.800781,193.871094 C527.117189,193.988282 528.04882,194.25781 529.595703,194.679688 C531.833996,195.277347 533.395503,195.7666 534.280273,196.147461 C535.165043,196.528322 535.859372,197.082028 536.363281,197.808594 C536.86719,198.53516 537.119141,199.437495 537.119141,200.515625 C537.119141,201.570318 536.811527,202.563472 536.196289,203.495117 C535.581052,204.426762 534.693365,205.147458 533.533203,205.657227 C532.373041,206.166995 531.060554,206.421875 529.595703,206.421875 C527.16991,206.421875 525.321295,205.917974 524.049805,204.910156 C522.778314,203.902339 521.966799,202.408213 521.615234,200.427734 Z M554.328125,206 L548.615234,187.332031 L551.884766,187.332031 L554.855469,198.107422 L555.962891,202.115234 C556.009766,201.916015 556.332028,200.632824 556.929688,198.265625 L559.900391,187.332031 L563.152344,187.332031 L565.947266,198.160156 L566.878906,201.728516 L567.951172,198.125 L571.150391,187.332031 L574.226562,187.332031 L568.390625,206 L565.103516,206 L562.132812,194.820312 L561.412109,191.638672 L557.632812,206 L554.328125,206 Z M576.898438,183.869141 L576.898438,180.230469 L580.0625,180.230469 L580.0625,183.869141 L576.898438,183.869141 Z M576.898438,206 L576.898438,187.332031 L580.0625,187.332031 L580.0625,206 L576.898438,206 Z M591.787109,203.169922 L592.244141,205.964844 C591.353511,206.152345 590.556644,206.246094 589.853516,206.246094 C588.705072,206.246094 587.814456,206.064455 587.181641,205.701172 C586.548825,205.337889 586.103517,204.860355 585.845703,204.268555 C585.587889,203.676755 585.458984,202.43165 585.458984,200.533203 L585.458984,189.792969 L583.138672,189.792969 L583.138672,187.332031 L585.458984,187.332031 L585.458984,182.708984 L588.605469,180.810547 L588.605469,187.332031 L591.787109,187.332031 L591.787109,189.792969 L588.605469,189.792969 L588.605469,200.708984 C588.605469,201.611333 588.661132,202.191405 588.772461,202.449219 C588.88379,202.707033 589.065428,202.912109 589.317383,203.064453 C589.569337,203.216798 589.929685,203.292969 590.398438,203.292969 C590.750002,203.292969 591.212888,203.251954 591.787109,203.169922 Z M594.880859,206 L594.880859,180.230469 L598.044922,180.230469 L598.044922,189.476562 C599.521492,187.765616 601.384754,186.910156 603.634766,186.910156 C605.017585,186.910156 606.218745,187.182614 607.238281,187.727539 C608.257818,188.272464 608.987302,189.025386 609.426758,189.986328 C609.866213,190.94727 610.085938,192.341788 610.085938,194.169922 L610.085938,206 L606.921875,206 L606.921875,194.169922 C606.921875,192.587883 606.579105,191.436527 605.893555,190.71582 C605.208004,189.995114 604.238288,189.634766 602.984375,189.634766 C602.04687,189.634766 601.165043,189.877927 600.338867,190.364258 C599.512691,190.850588 598.92383,191.509761 598.572266,192.341797 C598.220701,193.173832 598.044922,194.322258 598.044922,195.787109 L598.044922,206 L594.880859,206 Z M629.808594,206 L622.970703,180.230469 L626.46875,180.230469 L630.388672,197.123047 C630.810549,198.892587 631.173827,200.650382 631.478516,202.396484 C632.134769,199.642564 632.521484,198.05469 632.638672,197.632812 L637.542969,180.230469 L641.65625,180.230469 L645.347656,193.273438 C646.273442,196.507829 646.941404,199.548814 647.351562,202.396484 C647.679689,200.76757 648.107419,198.898448 648.634766,196.789062 L652.677734,180.230469 L656.105469,180.230469 L649.039062,206 L645.751953,206 L640.320312,186.365234 C639.863279,184.724601 639.59375,183.716799 639.511719,183.341797 C639.242186,184.525397 638.990236,185.533199 638.755859,186.365234 L633.289062,206 L629.808594,206 Z M671.011719,199.988281 L674.28125,200.392578 C673.765622,202.302744 672.810554,203.785151 671.416016,204.839844 C670.021477,205.894537 668.240245,206.421875 666.072266,206.421875 C663.341783,206.421875 661.176766,205.581063 659.577148,203.899414 C657.977531,202.217765 657.177734,199.85939 657.177734,196.824219 C657.177734,193.683578 657.98632,191.246102 659.603516,189.511719 C661.220711,187.777335 663.318346,186.910156 665.896484,186.910156 C668.392591,186.910156 670.431633,187.759757 672.013672,189.458984 C673.595711,191.158212 674.386719,193.548813 674.386719,196.630859 C674.386719,196.81836 674.380859,197.099607 674.369141,197.474609 L660.447266,197.474609 C660.564454,199.525401 661.144526,201.095698 662.1875,202.185547 C663.230474,203.275396 664.531242,203.820312 666.089844,203.820312 C667.250006,203.820312 668.24023,203.515628 669.060547,202.90625 C669.880863,202.296872 670.531248,201.324225 671.011719,199.988281 Z M660.623047,194.873047 L671.046875,194.873047 C670.906249,193.302727 670.507816,192.125004 669.851562,191.339844 C668.843745,190.121088 667.537117,189.511719 665.931641,189.511719 C664.478508,189.511719 663.256841,189.998042 662.266602,190.970703 C661.276362,191.943364 660.728516,193.244132 660.623047,194.873047 Z M681.171875,206 L678.236328,206 L678.236328,180.230469 L681.400391,180.230469 L681.400391,189.423828 C682.736335,187.748038 684.441396,186.910156 686.515625,186.910156 C687.664068,186.910156 688.750971,187.141599 689.776367,187.604492 C690.801763,188.067385 691.645505,188.717769 692.307617,189.555664 C692.96973,190.393559 693.488279,191.404291 693.863281,192.587891 C694.238283,193.77149 694.425781,195.037103 694.425781,196.384766 C694.425781,199.584 693.634774,202.056632 692.052734,203.802734 C690.470695,205.548837 688.572277,206.421875 686.357422,206.421875 C684.154286,206.421875 682.425788,205.501962 681.171875,203.662109 L681.171875,206 Z M681.136719,196.525391 C681.136719,198.763683 681.441403,200.380854 682.050781,201.376953 C683.04688,203.005868 684.394523,203.820312 686.09375,203.820312 C687.476569,203.820312 688.67187,203.219733 689.679688,202.018555 C690.687505,200.817377 691.191406,199.027356 691.191406,196.648438 C691.191406,194.210925 690.708013,192.412115 689.741211,191.251953 C688.774409,190.091791 687.605476,189.511719 686.234375,189.511719 C684.851556,189.511719 683.656255,190.112299 682.648438,191.313477 C681.64062,192.514654 681.136719,194.251942 681.136719,196.525391 Z M698.275391,213.154297 L698.275391,187.332031 L701.158203,187.332031 L701.158203,189.757812 C701.837894,188.808589 702.605464,188.096682 703.460938,187.62207 C704.316411,187.147459 705.35351,186.910156 706.572266,186.910156 C708.166024,186.910156 709.57226,187.320308 710.791016,188.140625 C712.009772,188.960942 712.929684,190.118157 713.550781,191.612305 C714.171878,193.106453 714.482422,194.744132 714.482422,196.525391 C714.482422,198.435556 714.139652,200.155266 713.454102,201.68457 C712.768551,203.213875 711.772467,204.385738 710.46582,205.200195 C709.159173,206.014653 707.785163,206.421875 706.34375,206.421875 C705.289057,206.421875 704.342778,206.199221 703.504883,205.753906 C702.666988,205.308592 701.978518,204.746097 701.439453,204.066406 L701.439453,213.154297 L698.275391,213.154297 Z M701.140625,196.771484 C701.140625,199.17384 701.626948,200.949213 702.599609,202.097656 C703.57227,203.246099 704.749993,203.820312 706.132812,203.820312 C707.53907,203.820312 708.743159,203.225592 709.745117,202.036133 C710.747075,200.846674 711.248047,199.003919 711.248047,196.507812 C711.248047,194.128894 710.758794,192.347662 709.780273,191.164062 C708.801753,189.980463 707.632819,189.388672 706.273438,189.388672 C704.925775,189.388672 703.733404,190.018548 702.696289,191.27832 C701.659175,192.538092 701.140625,194.369129 701.140625,196.771484 Z M730.478516,203.697266 C729.306635,204.693364 728.178716,205.396482 727.094727,205.806641 C726.010737,206.216799 724.847662,206.421875 723.605469,206.421875 C721.554677,206.421875 719.978521,205.920903 718.876953,204.918945 C717.775385,203.916987 717.224609,202.636727 717.224609,201.078125 C717.224609,200.164058 717.432615,199.329105 717.848633,198.573242 C718.264651,197.817379 718.809567,197.21094 719.483398,196.753906 C720.15723,196.296873 720.916011,195.951173 721.759766,195.716797 C722.380862,195.552734 723.318353,195.394532 724.572266,195.242188 C727.126966,194.937498 729.007806,194.574221 730.214844,194.152344 C730.226563,193.718748 730.232422,193.44336 730.232422,193.326172 C730.232422,192.037103 729.933597,191.128909 729.335938,190.601562 C728.52734,189.886715 727.32618,189.529297 725.732422,189.529297 C724.244133,189.529297 723.145511,189.790036 722.436523,190.311523 C721.727536,190.83301 721.203127,191.755853 720.863281,193.080078 L717.769531,192.658203 C718.050783,191.333978 718.513669,190.264653 719.158203,189.450195 C719.802738,188.635738 720.734369,188.008791 721.953125,187.569336 C723.171881,187.129881 724.583976,186.910156 726.189453,186.910156 C727.783211,186.910156 729.07812,187.097654 730.074219,187.472656 C731.070317,187.847658 731.802732,188.319333 732.271484,188.887695 C732.740237,189.456058 733.068358,190.173824 733.255859,191.041016 C733.361329,191.580081 733.414062,192.552727 733.414062,193.958984 L733.414062,198.177734 C733.414062,201.119155 733.481445,202.979488 733.616211,203.758789 C733.750977,204.53809 734.017576,205.285153 734.416016,206 L731.111328,206 C730.783201,205.343747 730.572266,204.576176 730.478516,203.697266 Z M730.214844,196.630859 C729.066401,197.099612 727.343761,197.498045 725.046875,197.826172 C723.746087,198.013673 722.826175,198.224608 722.287109,198.458984 C721.748044,198.693361 721.332033,199.036131 721.039062,199.487305 C720.746092,199.938479 720.599609,200.43945 720.599609,200.990234 C720.599609,201.833989 720.918942,202.537107 721.557617,203.099609 C722.196292,203.662112 723.130853,203.943359 724.361328,203.943359 C725.580084,203.943359 726.664058,203.67676 727.613281,203.143555 C728.562505,202.610349 729.259763,201.880864 729.705078,200.955078 C730.044924,200.240231 730.214844,199.185554 730.214844,197.791016 L730.214844,196.630859 Z M750.5,199.162109 L753.611328,199.566406 C753.271483,201.710948 752.401374,203.389642 751.000977,204.602539 C749.600579,205.815436 747.88087,206.421875 745.841797,206.421875 C743.287097,206.421875 741.233406,205.586922 739.680664,203.916992 C738.127922,202.247062 737.351562,199.853531 737.351562,196.736328 C737.351562,194.720693 737.685544,192.957039 738.353516,191.445312 C739.021488,189.933586 740.038079,188.799808 741.40332,188.043945 C742.768562,187.288082 744.253898,186.910156 745.859375,186.910156 C747.886729,186.910156 749.544915,187.422846 750.833984,188.448242 C752.123053,189.473638 752.949217,190.929678 753.3125,192.816406 L750.236328,193.291016 C749.943358,192.037103 749.424808,191.093753 748.680664,190.460938 C747.93652,189.828122 747.037115,189.511719 745.982422,189.511719 C744.388664,189.511719 743.093755,190.083002 742.097656,191.225586 C741.101558,192.36817 740.603516,194.175769 740.603516,196.648438 C740.603516,199.156263 741.08398,200.97851 742.044922,202.115234 C743.005864,203.251959 744.259758,203.820312 745.806641,203.820312 C747.048834,203.820312 748.085933,203.439457 748.917969,202.677734 C749.750004,201.916012 750.277343,200.744149 750.5,199.162109 Z M756.335938,206 L756.335938,180.230469 L759.5,180.230469 L759.5,194.925781 L766.988281,187.332031 L771.083984,187.332031 L763.947266,194.257812 L771.804688,206 L767.902344,206 L761.732422,196.455078 L759.5,198.599609 L759.5,206 L756.335938,206 Z" id="Environment-Variable" fill="#FFFFFF"></path>
                    </g>
                </g>
            </g>
        </g>
    </g>
</svg>
